<svg width="48" height="49" viewBox="0 0 48 49" fill="none" xmlns="http://www.w3.org/2000/svg">
<rect y="0.5" width="48" height="48" rx="10" fill="#FEF4F4"/>
<path d="M37.0267 11.4719C36.6267 11.0719 35.9733 11.0719 35.5733 11.4719L10.9733 36.0852C10.5733 36.4852 10.5733 37.1385 10.9733 37.5385C11.1733 37.7252 11.4267 37.8319 11.6933 37.8319C11.96 37.8319 12.2133 37.7252 12.4133 37.5252L37.0267 12.9119C37.44 12.5119 37.44 11.8719 37.0267 11.4719Z" fill="#EF1E1E"/>
<path d="M27.76 13.1919V20.7386L20.24 28.2586V26.2052H16.12C14.2533 26.2052 13.7333 25.0586 14.9733 23.6586L24 13.3919L25.0667 12.1786C26.5467 10.4986 27.76 10.9519 27.76 13.1919Z" fill="#EF1E1E"/>
<path d="M33.0267 25.3396L24 35.6063L22.9333 36.8196C21.4533 38.4996 20.24 38.0463 20.24 35.8063V32.2596L29.7067 22.793H31.88C33.7467 22.793 34.2667 23.9396 33.0267 25.3396Z" fill="#F57878"/>
</svg>
