<svg width="48" height="49" viewBox="0 0 48 49" fill="none" xmlns="http://www.w3.org/2000/svg">
<rect y="0.5" width="48" height="48" rx="10" fill="#F4FBF7"/>
<path d="M35.8667 21.6333L36.6534 34.82C36.68 35.18 36.5067 35.42 36.4134 35.5267C36.3067 35.6467 36.08 35.8333 35.7067 35.8333H32.0667L34.9467 21.6333H35.8667ZM37.3334 16.5L37.32 16.5267C37.3467 16.8467 37.32 17.18 37.24 17.5133L27.4134 35.5533C27.0934 36.9 25.8934 37.8333 24.5067 37.8333H35.7067C37.4267 37.8333 38.7867 36.38 38.6534 34.66L37.3334 16.5Z" fill="#68C690"/>
<path d="M23.2667 11.4885C23.4 10.9552 23.0667 10.4085 22.5333 10.2752C22 10.1552 21.4533 10.4752 21.32 11.0085L20.6533 13.7685H22.7067L23.2667 11.4885Z" fill="#68C690"/>
<path d="M32.0667 11.4448C32.1867 10.8981 31.84 10.3781 31.2934 10.2581C30.76 10.1381 30.2267 10.4848 30.1067 11.0315L29.5067 13.7915H31.56L32.0667 11.4448Z" fill="#68C690"/>
<path d="M37.0933 15.6072C36.6533 14.5406 35.6133 13.7806 34.3333 13.7806H31.56L30.8133 17.2339C30.7066 17.7006 30.2933 18.0206 29.84 18.0206C29.7733 18.0206 29.6933 18.0206 29.6266 17.9939C29.0933 17.8739 28.7466 17.3406 28.8533 16.8072L29.5066 13.7672H22.7066L21.8666 17.2339C21.76 17.6872 21.3466 17.9939 20.8933 17.9939C20.8133 17.9939 20.7333 17.9806 20.6533 17.9672C20.12 17.8339 19.7866 17.3006 19.92 16.7539L20.64 13.7539H17.9333C16.6266 13.7539 15.4666 14.6072 15.08 15.8606L9.46662 33.9272C8.87996 35.8606 10.3066 37.8339 12.32 37.8339H29.84C31.2266 37.8339 32.4266 36.9006 32.7466 35.5539L37.24 17.5139C37.32 17.1806 37.3466 16.8472 37.32 16.5272C37.2933 16.2072 37.2266 15.8872 37.0933 15.6072ZM27.6 30.8339H16.9333C16.3866 30.8339 15.9333 30.3806 15.9333 29.8339C15.9333 29.2872 16.3866 28.8339 16.9333 28.8339H27.6C28.1466 28.8339 28.6 29.2872 28.6 29.8339C28.6 30.3806 28.1466 30.8339 27.6 30.8339ZM28.9333 25.5006H18.2666C17.72 25.5006 17.2666 25.0472 17.2666 24.5006C17.2666 23.9539 17.72 23.5006 18.2666 23.5006H28.9333C29.48 23.5006 29.9333 23.9539 29.9333 24.5006C29.9333 25.0472 29.48 25.5006 28.9333 25.5006Z" fill="#27AE60"/>
</svg>
